<?xml version="1.0" encoding="UTF-8" standalone="yes"?>
<!DOCTYPE svg PUBLIC "-//W3C//DTD SVG 1.1//EN" "http://www.w3.org/Graphics/SVG/1.1/DTD/svg11.dtd">

<svg width="500" height="500" viewBox="0 0 500 500" xmlns="http://www.w3.org/2000/svg" xmlns:xlink="http://www.w3.org/1999/xlink" version="1.1" baseProfile="full">
    <g transform="scale(1,-1) translate(0,-500)">
        <path d="M 19.168398 52.710056 L 51.555542 48.760404 Q 56.416652 48.152766 59.667520 44.537315 Q 62.918387 40.921865 62.918387 35.999991 L 62.918387 34.784713 Q 62.918387 28.647562 58.482624 24.151036 Q 54.046861 19.715273 47.848946 19.715273 L 22.449647 19.715273 Q 16.312496 19.715273 11.876733 24.151036 Q 7.440971 28.586798 7.440971 34.784713 L 10.661456 34.784713 Q 10.661456 29.923604 14.124997 26.399299 Q 17.588537 22.935758 22.449647 22.935758 L 47.848946 22.935758 Q 52.649292 22.935758 56.234361 26.399299 Q 59.697901 29.923604 59.697901 34.784713 L 59.697901 36.121519 Q 59.697901 44.749989 51.190959 45.722211 L 18.743051 49.611099 Q 13.821177 50.157973 10.631074 53.803806 Q 7.440971 57.449638 7.440971 62.371512 L 7.440971 63.039914 Q 7.440971 69.177066 11.876733 73.612828 Q 16.312496 78.048591 22.449647 78.048591 L 47.848946 78.048591 Q 54.046861 78.048591 58.482624 73.612828 Q 62.736095 69.298593 62.857623 63.100678 L 59.697901 63.100678 Q 59.515610 67.840260 56.234361 71.364565 Q 52.649292 74.828106 47.848946 74.828106 L 22.449647 74.828106 Q 17.588537 74.828106 14.124997 71.364565 Q 10.661456 67.901024 10.661456 63.039914 L 10.661456 62.249984 Q 10.661456 53.743042 19.168398 52.710056 Z M 22.449647 84.489562 L 47.848946 84.489562 Q 56.781236 84.489562 63.039914 78.230883 Q 69.298593 71.850676 69.298593 63.100678 L 66.078108 63.100678 Q 66.078108 70.574635 60.730887 75.861092 Q 55.383666 81.269076 47.848946 81.269076 L 22.449647 81.269076 Q 14.854163 81.269076 9.567706 75.861092 Q 4.220485 70.513871 4.220485 63.039914 L 4.220485 62.189220 Q 4.220485 56.052069 8.230901 51.555542 Q 12.241317 47.059016 18.378468 46.329849 L 50.765612 42.440961 Q 56.477416 41.651031 56.477416 36.060755 L 56.477416 34.784713 Q 56.477416 31.321173 53.925334 28.769090 Q 51.494779 26.277771 47.848946 26.277771 L 22.449647 26.277771 Q 18.864579 26.277771 16.373260 28.769090 Q 13.821177 31.381937 13.821177 34.784713 L 17.041663 34.784713 Q 17.041663 32.536450 18.682287 31.078117 Q 20.262148 29.498257 22.449647 29.498257 L 47.848946 29.498257 Q 49.975682 29.498257 51.677070 31.078117 Q 53.256931 32.597214 53.256931 34.784713 L 53.256931 36.182283 Q 53.256931 38.977421 50.401029 39.342004 L 17.953121 43.291656 Q 10.661456 44.142350 5.830728 49.580717 Q 1.000000 55.019083 1.000000 62.371512 L 1.000000 63.100678 Q 1.000000 71.911440 7.319443 78.230883 Q 13.578122 84.489562 22.449647 84.489562 Z M 69.298593 34.784713 Q 69.298593 25.973952 63.039914 19.715273 Q 56.720472 13.395830 47.848946 13.395830 L 22.449647 13.395830 Q 13.638886 13.395830 7.319443 19.715273 Q 1.000000 25.913188 1.000000 34.784713 L 4.220485 34.784713 Q 4.220485 27.310757 9.567706 21.963536 Q 14.914927 16.616315 22.449647 16.616315 L 47.848946 16.616315 Q 55.383666 16.616315 60.730887 21.963536 Q 66.078108 27.310757 66.078108 34.784713 L 66.078108 35.635408 Q 66.078108 41.711795 62.037311 46.299467 Q 57.996513 50.887140 51.980890 51.677070 L 19.532981 55.565958 Q 13.821177 56.295125 13.821177 61.946165 Q 13.821177 62.249984 13.821177 62.553804 Q 13.821177 62.857623 13.821177 63.161442 Q 13.821177 66.624983 16.373260 69.177066 Q 18.803815 71.729148 22.449647 71.729148 L 47.848946 71.729148 Q 51.555542 71.729148 53.925334 69.177066 Q 56.477416 66.624983 56.477416 63.100678 L 53.256931 63.100678 Q 53.256931 65.227414 51.677070 66.928802 Q 49.975682 68.508663 47.848946 68.508663 L 22.449647 68.508663 Q 20.262148 68.508663 18.682287 66.928802 Q 17.041663 65.288178 17.041663 63.100678 L 17.041663 61.763873 Q 17.041663 58.847207 19.897565 58.543388 L 52.345473 54.654500 Q 59.637138 53.743042 64.467866 48.274293 Q 69.298593 42.805545 69.298593 35.513880 Q 69.298593 35.331588 69.298593 35.149297 Q 69.298593 34.967005 69.298593 34.784713 Z M 122.345455 74.888870 L 96.946156 74.888870 Q 91.963518 74.888870 88.621505 71.425329 Q 85.218728 68.022552 85.218728 63.100678 L 85.097200 34.541658 Q 85.097200 29.680548 88.560741 26.156243 Q 92.024282 22.692703 96.885392 22.692703 L 122.223927 22.692703 Q 127.024273 22.692703 130.609341 26.156243 Q 134.072882 29.680548 134.072882 34.541658 L 137.354131 34.541658 Q 137.354131 28.404507 132.918369 23.907980 Q 128.482606 19.472217 122.284691 19.472217 L 96.824628 19.472217 Q 90.687477 19.472217 86.251714 23.907980 Q 81.815951 28.343743 81.815951 34.541658 L 81.937479 63.100678 Q 81.937479 69.359357 86.312478 73.734356 Q 90.748241 78.109355 96.885392 78.109355 L 122.406219 78.109355 Q 128.604134 78.109355 132.979133 73.734356 Q 137.414895 69.298593 137.414895 63.100678 L 137.354131 60.123249 Q 137.354131 54.836792 133.556389 51.099813 Q 129.758647 47.362835 124.472190 47.362835 L 96.824628 47.362835 L 96.824628 50.583320 L 124.472190 50.583320 Q 128.421842 50.583320 131.247362 53.348077 Q 134.072882 56.112833 134.072882 60.123249 L 134.133646 63.100678 Q 134.133646 67.961788 130.670105 71.425329 Q 127.206565 74.888870 122.345455 74.888870 Z M 143.673574 63.100678 L 143.673574 60.184012 Q 143.673574 52.223945 138.022534 46.603287 Q 132.371494 40.982629 124.411426 40.982629 L 96.824628 40.982629 L 96.824628 44.203114 L 124.411426 44.203114 Q 130.973925 44.203114 135.713507 48.881932 Q 140.453089 53.560750 140.453089 60.184012 L 140.453089 63.100678 Q 140.453089 70.574635 135.105868 75.861092 Q 129.758647 81.269076 122.223927 81.269076 L 96.824628 81.269076 Q 89.229144 81.269076 83.942687 75.861092 Q 78.595466 70.513871 78.595466 63.039914 L 78.777758 34.541658 Q 78.777758 27.006938 84.124978 21.659717 Q 89.472199 16.312496 97.006920 16.312496 L 122.466982 16.312496 Q 129.940939 16.312496 135.288160 21.659717 Q 140.635381 27.006938 140.635381 34.541658 L 143.855866 34.541658 Q 143.855866 25.730896 137.536423 19.411454 Q 131.277744 13.092011 122.466982 13.092011 L 97.006920 13.092011 Q 88.196158 13.092011 81.876715 19.411454 Q 75.618036 25.670133 75.618036 34.541658 L 75.374981 63.100678 Q 75.374981 71.911440 81.694424 78.230883 Q 87.953102 84.489562 96.824628 84.489562 L 122.223927 84.489562 Q 131.156216 84.489562 137.414895 78.230883 Q 143.673574 71.850676 143.673574 63.100678 Z M 130.852397 63.161442 L 130.852397 60.184012 Q 130.852397 53.803806 124.411426 53.803806 L 96.824628 53.803806 L 96.824628 57.024291 L 124.411426 57.024291 Q 127.631912 57.024291 127.631912 60.244776 L 127.631912 63.100678 Q 127.631912 65.227414 126.052051 66.928802 Q 124.350663 68.508663 122.223927 68.508663 L 96.824628 68.508663 Q 94.637129 68.508663 93.057268 66.928802 Q 91.416643 65.288178 91.416643 63.100678 L 91.538171 34.541658 Q 91.538171 32.293395 93.118032 30.713534 Q 94.697892 29.133673 96.885392 29.133673 L 122.345455 29.133673 Q 124.532954 29.133673 126.112815 30.713534 Q 127.692676 32.293395 127.692676 34.541658 L 130.913161 34.541658 Q 130.913161 30.895826 128.361078 28.465271 Q 125.869759 25.913188 122.345455 25.913188 L 96.885392 25.913188 Q 93.421851 25.913188 90.809005 28.465271 Q 88.317686 30.956589 88.317686 34.541658 L 88.196158 63.161442 Q 88.196158 66.624983 90.748241 69.177066 Q 93.178796 71.729148 96.824628 71.729148 L 122.223927 71.729148 Q 125.930523 71.729148 128.300314 69.177066 Q 130.852397 66.685747 130.852397 63.161442 Z M 168.100651 52.467001 L 200.487796 48.517349 Q 205.348905 47.909710 208.599773 44.294260 Q 211.850640 40.678809 211.850640 35.756935 L 211.850640 34.541658 Q 211.850640 28.404507 207.414877 23.907980 Q 202.979114 19.472217 196.781199 19.472217 L 171.381900 19.472217 Q 165.244749 19.472217 160.808986 23.907980 Q 156.373224 28.343743 156.373224 34.541658 L 156.373224 34.784713 L 159.593709 34.784713 L 159.593709 34.541658 Q 159.593709 29.680548 163.057250 26.156243 Q 166.520790 22.692703 171.381900 22.692703 L 196.781199 22.692703 Q 201.581545 22.692703 205.166614 26.156243 Q 208.630155 29.680548 208.630155 34.541658 L 208.630155 35.878463 Q 208.630155 44.506933 200.123212 45.479155 L 167.675304 49.368043 Q 162.753430 49.914918 159.563327 53.560750 Q 156.373224 57.206583 156.373224 62.128456 L 156.373224 62.796859 Q 156.373224 68.934010 160.808986 73.369773 Q 165.244749 77.805536 171.381900 77.805536 L 196.781199 77.805536 Q 202.979114 77.805536 207.414877 73.369773 Q 211.668348 69.055538 211.789876 63.100678 L 208.630155 63.100678 Q 208.447863 67.597205 205.166614 71.121510 Q 201.581545 74.585050 196.781199 74.585050 L 171.381900 74.585050 Q 166.520790 74.585050 163.057250 71.121510 Q 159.593709 67.657969 159.593709 62.796859 L 159.593709 62.006929 Q 159.593709 53.499986 168.100651 52.467001 Z M 171.381900 84.489562 L 196.781199 84.489562 Q 205.713489 84.489562 211.972168 78.230883 Q 218.230847 71.850676 218.230847 63.100678 L 215.010361 63.100678 Q 215.010361 70.574635 209.663140 75.861092 Q 204.315920 81.269076 196.781199 81.269076 L 171.381900 81.269076 Q 163.786416 81.269076 158.499959 75.861092 Q 153.152738 70.513871 153.152738 63.039914 L 153.152738 62.189220 Q 153.152738 56.052069 157.163154 51.555542 Q 161.173570 47.059016 167.310721 46.329849 L 199.697865 42.440961 Q 205.409669 41.651031 205.409669 36.060755 L 205.409669 34.784713 Q 205.409669 31.321173 202.857587 28.769090 Q 200.427032 26.277771 196.781199 26.277771 L 171.381900 26.277771 Q 167.796832 26.277771 165.305513 28.769090 Q 162.753430 31.381937 162.753430 34.784713 L 165.973916 34.784713 Q 165.973916 32.536450 167.614540 31.078117 Q 169.194401 29.498257 171.381900 29.498257 L 196.781199 29.498257 Q 198.907935 29.498257 200.609323 31.078117 Q 202.189184 32.597214 202.189184 34.784713 L 202.189184 36.182283 Q 202.189184 38.977421 199.333282 39.342004 L 166.885374 43.291656 Q 159.593709 44.142350 154.762981 49.580717 Q 149.932253 55.019083 149.932253 62.371512 L 149.932253 63.100678 Q 149.932253 71.911440 156.251696 78.230883 Q 162.510375 84.489562 171.381900 84.489562 Z M 218.230847 34.784713 Q 218.230847 25.973952 211.972168 19.715273 Q 205.652725 13.395830 196.781199 13.395830 L 171.381900 13.395830 Q 162.571139 13.395830 156.251696 19.715273 Q 149.932253 25.913188 149.932253 34.784713 L 153.152738 34.784713 Q 153.152738 27.310757 158.499959 21.963536 Q 163.847180 16.616315 171.381900 16.616315 L 196.781199 16.616315 Q 204.315920 16.616315 209.663140 21.963536 Q 215.010361 27.310757 215.010361 34.784713 L 215.010361 35.635408 Q 215.010361 41.711795 210.969564 46.299467 Q 206.928766 50.887140 200.913143 51.677070 L 168.465234 55.565958 Q 162.753430 56.295125 162.753430 61.946165 Q 162.753430 62.249984 162.753430 62.553804 Q 162.753430 62.857623 162.753430 63.161442 Q 162.753430 66.624983 165.305513 69.177066 Q 167.736068 71.729148 171.381900 71.729148 L 196.781199 71.729148 Q 200.487796 71.729148 202.857587 69.177066 Q 205.409669 66.624983 205.409669 63.100678 L 202.189184 63.100678 Q 202.189184 65.227414 200.609323 66.928802 Q 198.907935 68.508663 196.781199 68.508663 L 171.381900 68.508663 Q 169.194401 68.508663 167.614540 66.928802 Q 165.973916 65.288178 165.973916 63.100678 L 165.973916 61.763873 Q 165.973916 58.847207 168.829818 58.543388 L 201.277726 54.654500 Q 208.569391 53.743042 213.400119 48.274293 Q 218.230847 42.805545 218.230847 35.513880 Q 218.230847 35.331588 218.230847 35.149297 Q 218.230847 34.967005 218.230847 34.784713 Z M 250.617991 78.109355 L 250.617991 74.888870 L 233.968690 74.888870 L 233.968690 34.541658 Q 233.968690 29.680548 237.432230 26.156243 Q 240.895771 22.692703 245.756881 22.692703 L 250.617991 22.692703 L 250.617991 19.472217 L 245.756881 19.472217 Q 239.619730 19.472217 235.183967 23.907980 Q 230.748204 28.343743 230.748204 34.541658 L 230.748204 97.310739 L 233.968690 97.310739 L 233.968690 78.109355 Z M 227.527719 97.310739 L 227.649247 34.541658 Q 227.649247 26.946174 232.996468 21.720481 Q 238.282925 16.312496 245.817645 16.312496 L 250.678755 16.312496 L 250.678755 13.092011 L 245.817645 13.092011 Q 237.006883 13.092011 230.748204 19.350690 Q 224.428762 25.670133 224.428762 34.480894 L 224.307234 97.310739 Z M 237.128411 97.310739 L 240.348896 97.310739 L 240.348896 84.489562 L 250.617991 84.489562 L 250.617991 81.269076 L 237.128411 81.329840 Z M 237.128411 34.541658 L 237.128411 71.729148 L 250.617991 71.729148 L 250.617991 68.508663 L 240.348896 68.508663 L 240.348896 34.541658 Q 240.348896 32.232631 241.989521 30.713534 Q 243.569382 29.133673 245.756881 29.133673 L 250.617991 29.133673 L 250.617991 25.913188 L 245.756881 25.913188 Q 242.232576 25.913188 239.680494 28.465271 Q 237.128411 31.017353 237.128411 34.541658 Z M 325.053736 63.100678 L 325.053736 34.541658 Q 325.053736 25.670133 318.795057 19.350690 Q 312.414850 13.092011 303.604088 13.092011 L 278.204789 13.092011 Q 269.394028 13.092011 263.074585 19.350690 Q 256.755142 25.670133 256.755142 34.541658 L 256.755142 63.100678 Q 256.755142 71.911440 263.074585 78.230883 Q 269.333264 84.489562 278.204789 84.489562 L 303.604088 84.489562 Q 312.536378 84.489562 318.795057 78.230883 Q 325.053736 71.850676 325.053736 63.100678 Z M 259.975627 63.039914 L 259.975627 34.541658 Q 259.975627 27.006938 265.322848 21.659717 Q 270.548541 16.312496 278.204789 16.312496 L 303.604088 16.312496 Q 311.199572 16.312496 316.486029 21.659717 Q 321.833250 27.006938 321.833250 34.541658 L 321.833250 63.039914 Q 321.833250 70.513871 316.486029 75.861092 Q 311.138809 81.269076 303.604088 81.269076 L 278.204789 81.269076 Q 270.609305 81.269076 265.322848 75.861092 Q 259.975627 70.513871 259.975627 63.039914 Z M 266.416598 34.541658 Q 266.416598 29.680548 269.880139 26.156243 Q 273.343680 22.692703 278.204789 22.692703 L 303.604088 22.692703 Q 308.404434 22.692703 311.989503 26.156243 Q 315.453044 29.680548 315.453044 34.541658 L 315.453044 63.100678 Q 315.453044 67.961788 311.989503 71.425329 Q 308.525962 74.888870 303.604088 74.888870 L 278.204789 74.888870 Q 273.222152 74.888870 269.880139 71.425329 Q 266.416598 67.961788 266.416598 63.100678 Z M 318.673529 34.541658 Q 318.673529 28.404507 314.237766 23.907980 Q 309.802003 19.472217 303.604088 19.472217 L 278.204789 19.472217 Q 272.067638 19.472217 267.631875 23.907980 Q 263.196113 28.343743 263.196113 34.541658 L 263.196113 63.100678 Q 263.196113 69.298593 267.631875 73.734356 Q 272.067638 78.109355 278.204789 78.109355 L 303.604088 78.109355 Q 309.741240 78.109355 314.237766 73.734356 Q 318.673529 69.177066 318.673529 63.100678 Z M 269.576319 34.541658 L 269.576319 63.161442 Q 269.576319 66.624983 272.128402 69.177066 Q 274.558957 71.729148 278.204789 71.729148 L 303.604088 71.729148 Q 307.310685 71.729148 309.680476 69.177066 Q 312.232558 66.685747 312.232558 63.161442 L 312.232558 34.541658 Q 312.232558 30.895826 309.680476 28.465271 Q 307.189157 25.913188 303.604088 25.913188 L 278.204789 25.913188 Q 274.680485 25.913188 272.128402 28.465271 Q 269.576319 31.017353 269.576319 34.541658 Z M 309.012073 34.541658 L 309.012073 63.100678 Q 309.012073 65.227414 307.432212 66.928802 Q 305.730824 68.508663 303.604088 68.508663 L 278.204789 68.508663 Q 276.017290 68.508663 274.437429 66.928802 Q 272.796805 65.288178 272.796805 63.100678 L 272.796805 34.541658 Q 272.796805 32.232631 274.437429 30.713534 Q 276.017290 29.133673 278.204789 29.133673 L 303.604088 29.133673 Q 305.730824 29.133673 307.432212 30.713534 Q 309.012073 32.293395 309.012073 34.541658 Z M 352.579770 71.729148 L 377.979069 71.729148 Q 381.685665 71.729148 384.055456 69.177066 Q 386.607539 66.685747 386.607539 63.161442 L 386.486011 34.541658 Q 386.486011 30.956589 383.994693 28.465271 Q 381.442610 25.913188 377.918305 25.913188 L 352.519006 25.913188 L 352.519006 29.133673 L 377.918305 29.133673 Q 380.105805 29.133673 381.685665 30.713534 Q 383.265526 32.293395 383.265526 34.541658 L 383.387054 63.100678 Q 383.387054 65.227414 381.807193 66.928802 Q 380.105805 68.508663 377.979069 68.508663 L 352.579770 68.508663 Q 350.392271 68.508663 348.812410 66.928802 Q 347.171785 65.288178 347.171785 63.100678 L 347.171785 1.000000 L 343.951300 1.000000 L 343.951300 63.161442 Q 343.951300 66.624983 346.503383 69.177066 Q 348.933938 71.729148 352.579770 71.729148 Z M 352.579770 74.585050 Q 347.718660 74.585050 344.255119 71.121510 Q 340.791579 67.657969 340.791579 62.796859 L 340.791579 1.000000 L 337.571093 1.000000 L 337.571093 62.796859 Q 337.571093 68.934010 342.006856 73.369773 Q 346.442619 77.805536 352.579770 77.805536 L 377.979069 77.805536 Q 384.176984 77.805536 388.612747 73.369773 Q 393.048510 68.812482 393.048510 62.796859 L 393.048510 34.541658 Q 393.048510 28.404507 388.612747 23.907980 Q 384.176984 19.472217 377.979069 19.472217 L 352.579770 19.472217 L 352.579770 22.692703 L 377.979069 22.692703 Q 382.779415 22.692703 386.364484 26.156243 Q 389.828024 29.680548 389.828024 34.541658 L 389.828024 62.796859 Q 389.828024 67.657969 386.364484 71.121510 Q 382.779415 74.585050 377.979069 74.585050 Z M 377.979069 84.489562 Q 386.911358 84.489562 393.170037 78.230883 Q 399.428716 71.850676 399.428716 63.100678 L 399.428716 34.541658 Q 399.428716 25.670133 393.170037 19.350690 Q 386.789831 13.092011 377.979069 13.092011 L 352.579770 13.092011 L 352.579770 16.312496 L 377.979069 16.312496 Q 385.574553 16.312496 390.861010 21.659717 Q 396.208231 27.006938 396.208231 34.541658 L 396.208231 63.039914 Q 396.208231 70.513871 390.861010 75.861092 Q 385.513789 81.269076 377.979069 81.269076 L 352.579770 81.269076 Q 344.984286 81.269076 339.697829 75.861092 Q 334.350608 70.513871 334.350608 63.039914 L 334.350608 1.000000 L 331.130123 1.000000 L 331.130123 63.100678 Q 331.130123 71.911440 337.449566 78.230883 Q 343.708245 84.489562 352.579770 84.489562 Z M 415.166559 87.710047 L 411.946074 87.710047 L 411.946074 97.006920 L 415.166559 97.006920 Z M 415.166559 84.489562 L 415.166559 13.395830 L 411.946074 13.395830 L 411.946074 84.489562 Z M 421.546766 13.395830 L 418.326281 13.395830 L 418.326281 84.489562 L 421.546766 84.489562 Z M 408.725589 13.395830 L 405.505104 13.395830 L 405.505104 84.489562 L 408.725589 84.489562 Z M 421.546766 97.006920 L 421.546766 87.710047 L 418.326281 87.710047 L 418.326281 97.006920 Z M 408.725589 97.006920 L 408.725589 87.710047 L 405.505104 87.710047 L 405.505104 97.006920 Z M 474.472100 71.729148 Q 478.178696 71.729148 480.548487 69.177066 Q 483.100570 66.685747 483.100570 63.161442 L 483.100570 13.092011 L 479.880084 13.092011 L 479.880084 63.100678 Q 479.880084 65.227414 478.300224 66.928802 Q 476.598835 68.508663 474.472100 68.508663 L 449.072801 68.508663 Q 446.885301 68.508663 445.305441 66.928802 Q 443.664816 65.288178 443.664816 63.100678 L 443.664816 34.541658 Q 443.664816 32.232631 445.305441 30.713534 Q 446.885301 29.133673 449.072801 29.133673 L 474.472100 29.133673 L 474.472100 25.913188 L 449.072801 25.913188 Q 445.548496 25.913188 442.996413 28.465271 Q 440.444331 31.017353 440.444331 34.541658 L 440.444331 63.161442 Q 440.444331 66.624983 442.996413 69.177066 Q 445.426968 71.729148 449.072801 71.729148 Z M 449.072801 84.489562 L 474.472100 84.489562 Q 483.404389 84.489562 489.663068 78.230883 Q 495.921747 71.850676 495.921747 63.100678 L 495.921747 13.092011 L 492.701262 13.092011 L 492.701262 63.039914 Q 492.701262 70.513871 487.354041 75.861092 Q 482.006820 81.269076 474.472100 81.269076 L 449.072801 81.269076 Q 441.477317 81.269076 436.190860 75.861092 Q 430.843639 70.513871 430.843639 63.039914 L 430.843639 34.541658 Q 430.843639 27.006938 436.190860 21.659717 Q 441.416553 16.312496 449.072801 16.312496 L 474.472100 16.312496 L 474.472100 13.092011 L 449.072801 13.092011 Q 440.262039 13.092011 433.942596 19.350690 Q 427.623153 25.670133 427.623153 34.541658 L 427.623153 63.100678 Q 427.623153 71.911440 433.942596 78.230883 Q 440.201275 84.489562 449.072801 84.489562 Z M 474.472100 74.888870 L 449.072801 74.888870 Q 444.090163 74.888870 440.748150 71.425329 Q 437.284609 67.961788 437.284609 63.100678 L 437.284609 34.541658 Q 437.284609 29.680548 440.748150 26.156243 Q 444.211691 22.692703 449.072801 22.692703 L 474.472100 22.692703 L 474.472100 19.472217 L 449.072801 19.472217 Q 442.935649 19.472217 438.499887 23.907980 Q 434.064124 28.343743 434.064124 34.541658 L 434.064124 63.100678 Q 434.064124 69.298593 438.499887 73.734356 Q 442.935649 78.109355 449.072801 78.109355 L 474.472100 78.109355 Q 480.609251 78.109355 485.105777 73.734356 Q 489.541540 69.177066 489.541540 63.100678 L 489.541540 13.092011 L 486.321055 13.092011 L 486.321055 63.100678 Q 486.321055 67.961788 482.857514 71.425329 Q 479.393973 74.888870 474.472100 74.888870 Z" transform="scale(1.000000,1.000000) translate(1.539127,200.844631)" opacity="1.000000"></path>
    </g>
</svg>